# Blender 3.4.1
# www.blender.org
o Plane
v -19.999998 0.000000 19.999998
v -4.123886 0.000000 11.875085
v 15.030893 0.000000 -8.849796
v -12.899025 0.000000 13.999998
v 15.440365 0.000000 13.999998
v -10.639383 0.000000 13.999998
v 16.539921 0.000000 -6.293458
v 13.415751 0.000000 13.999998
v 18.152555 0.000000 -3.749060
v -8.377802 0.000000 13.999998
v 9.420877 0.000000 12.172042
v 17.539370 0.000000 13.999998
v 9.420877 0.000000 -2.922493
v 9.420877 0.000000 -0.733306
v 9.420877 0.000000 -5.090721
v 9.420877 0.000000 1.378955
v 6.988317 0.000000 -9.885001
v 19.999998 0.000000 12.683199
v 6.988317 0.000000 -12.028008
v -14.999999 0.000000 -15.999999
v -4.123886 0.000000 9.684656
v -15.444532 0.000000 5.569314
v 17.000000 0.000000 -15.999999
v 9.420877 0.000000 10.091329
v -13.338297 0.000000 5.569314
v -6.232407 0.000000 13.999998
v -17.548323 0.000000 7.590773
v -17.067739 0.000000 11.875085
v 9.420877 0.000000 7.712057
v -14.999999 0.000000 13.999998
v 12.907274 0.000000 -11.210137
v -8.190641 0.000000 7.590773
v 11.307031 0.000000 14.038230
v -6.020489 0.000000 7.646748
v 18.059345 0.000000 6.602061
v 19.999998 0.000000 19.999998
v 9.420877 0.000000 -7.255889
v 18.059345 0.000000 8.595938
v 18.102221 0.000000 10.650551
v -19.999998 0.000000 -19.999998
v -12.899025 0.000000 15.999999
v -10.639383 0.000000 15.999999
v 9.420877 0.000000 3.378955
v 18.152555 0.000000 -1.749060
v 15.440365 0.000000 15.999999
v 18.102221 0.000000 12.650552
v 15.030893 0.000000 -6.849795
v -4.123886 0.000000 11.684656
v 19.999998 0.000000 -19.999998
v -8.377802 0.000000 15.999999
v 9.420877 0.000000 12.091330
v 9.420877 0.000000 9.712057
v -4.123886 0.000000 13.875085
v 17.000000 0.000000 -13.999998
v -8.190641 0.000000 9.590774
v 18.059345 0.000000 10.595937
v 11.307031 0.000000 16.038231
v 12.907274 0.000000 -9.210137
v 9.420877 0.000000 -0.922493
v -14.999999 0.000000 -13.999998
v 18.059345 0.000000 8.602060
v 9.420877 0.000000 1.266694
v -13.338297 0.000000 7.569313
v -15.444532 0.000000 7.569313
v 17.539370 0.000000 15.999999
v -17.548323 0.000000 9.590774
v 6.988317 0.000000 -10.028008
v 9.420877 0.000000 -3.090721
v 6.988317 0.000000 -7.885001
v 13.415751 0.000000 15.999999
v -6.020489 0.000000 9.646749
v -6.232407 0.000000 15.999999
v -14.999999 0.000000 15.999999
v 9.420877 0.000000 -5.255889
v 16.539921 0.000000 -4.293458
v 19.999998 0.000000 14.683199
v -17.067739 0.000000 13.875085
v 7.420876 0.000000 -7.255889
v -8.020489 0.000000 7.646748
v 11.415751 0.000000 13.999998
v 13.030892 0.000000 -8.849796
v 4.988317 0.000000 -9.885001
v 4.988317 0.000000 -12.028008
v 14.539920 0.000000 -6.293458
v 10.907273 0.000000 -11.210137
v 14.999999 0.000000 -15.999999
v 18.076977 0.000000 -1.520380
v -17.000000 0.000000 -15.999999
v 16.152555 0.000000 -3.749060
v 15.539369 0.000000 13.999998
v 18.076977 0.000000 2.553411
v 13.440365 0.000000 13.999998
v -12.639384 0.000000 13.999998
v 16.059343 0.000000 8.595938
v -10.377802 0.000000 13.999998
v 17.999998 0.000000 12.683199
v -19.067741 0.000000 11.875085
v -8.232408 0.000000 13.999998
v -6.123886 0.000000 11.875085
v -17.000000 0.000000 13.999998
v 7.420876 0.000000 12.172042
v -14.899025 0.000000 13.999998
v -6.123886 0.000000 9.684656
v -10.190640 0.000000 7.590773
v 7.420876 0.000000 10.091329
v 18.076977 0.000000 0.600070
v 16.059343 0.000000 6.602061
v 18.076977 0.000000 4.625619
v 7.420876 0.000000 1.378955
v 7.420876 0.000000 -0.733306
v 7.420876 0.000000 -2.922493
v 7.420876 0.000000 7.712057
v 7.420876 0.000000 -5.090721
v 16.102221 0.000000 10.650551
v -19.548323 0.000000 7.590773
v -17.444532 0.000000 5.569314
v -15.338297 0.000000 5.569314
v 14.539920 0.000000 -4.293458
v -10.377802 0.000000 15.999999
v -8.232408 0.000000 15.999999
v -6.123886 0.000000 11.684656
v 7.420876 0.000000 12.091330
v -15.338297 0.000000 7.569313
v -6.123886 0.000000 13.875085
v -17.444532 0.000000 7.569313
v -8.020489 0.000000 9.646749
v 11.415751 0.000000 15.999999
v -19.548323 0.000000 9.590774
v 7.420876 0.000000 3.378955
v 13.030892 0.000000 -6.849795
v 7.420876 0.000000 9.712057
v 7.420876 0.000000 -0.922493
v 14.999999 0.000000 -13.999998
v 7.420876 0.000000 -3.090721
v 10.907273 0.000000 -9.210137
v -10.190640 0.000000 9.590774
v 7.420876 0.000000 -5.255889
v 15.539369 0.000000 15.999999
v 13.440365 0.000000 15.999999
v 7.420876 0.000000 1.266694
v 17.999998 0.000000 14.683199
v -14.899025 0.000000 15.999999
v 18.076977 0.000000 6.625619
v -17.000000 0.000000 15.999999
v 4.988317 0.000000 -7.885001
v 16.059343 0.000000 10.595937
v 4.988317 0.000000 -10.028008
v 9.307031 0.000000 16.038231
v 7.420876 0.000000 14.172043
v 16.059343 0.000000 8.602060
v -12.639384 0.000000 15.999999
v 16.102221 0.000000 12.650552
v 18.076977 0.000000 4.553411
v -17.000000 0.000000 -13.999998
v -19.067741 0.000000 13.875085
v 18.076977 0.000000 2.600070
v 18.076977 0.000000 0.479620
v 16.152555 0.000000 -1.749060
v 19.999998 0.000000 6.625619
v 19.999998 0.000000 4.625619
v 19.999998 0.000000 4.553411
v 19.999998 0.000000 0.600070
v 19.999998 0.000000 0.479620
v 19.999998 0.000000 -1.520380
v 10.907273 0.000000 -10.907273
v 9.307031 0.000000 14.172043
v 9.420877 0.000000 14.038230
vn -0.0000 1.0000 -0.0000
vn -0.0000 -1.0000 -0.0000
vt 0.000000 0.000000
vt 0.396903 0.203123
vt 0.875772 0.721245
vt 0.177524 0.150000
vt 1.000000 0.000000
vt 0.886009 0.150000
vt 1.000000 0.000000
vt 0.234015 0.150000
vt 0.913498 0.657336
vt 0.835394 0.150000
vt 0.953814 0.593727
vt 1.000000 0.000000
vt 0.290555 0.150000
vt 0.735522 0.195699
vt 1.000000 0.000000
vt 0.938484 0.150000
vt 0.735522 0.573062
vt 0.735522 0.518333
vt 0.735522 0.627268
vt 0.735522 0.465526
vt 1.000000 0.000000
vt 0.674708 0.747125
vt 1.000000 0.182920
vt 0.674708 0.800700
vt 0.125000 0.900000
vt 0.396903 0.257884
vt 0.113887 0.360767
vt 0.925000 0.900000
vt 0.735522 0.247717
vt 0.166543 0.360767
vt 1.000000 0.000000
vt 0.344190 0.150000
vt 0.061292 0.310231
vt 0.073306 0.203123
vt 0.735522 0.307199
vt 0.125000 0.150000
vt 0.822682 0.780253
vt 1.000000 0.000000
vt 0.295234 0.310231
vt 1.000000 0.000000
vt 0.782676 0.149044
vt 0.349488 0.308831
vt 0.951484 0.334948
vt 1.000000 0.000000
vt 0.735522 0.681397
vt 0.951484 0.285102
vt 0.952556 0.233736
vt 0.000000 1.000000
vt 0.177524 0.100000
vt 0.234015 0.100000
vt 0.735522 0.415526
vt 0.953814 0.543727
vt 0.886009 0.100000
vt 0.952556 0.183736
vt 0.875772 0.671245
vt 0.396903 0.207884
vt 1.000000 1.000000
vt 0.290555 0.100000
vt 0.735522 0.197717
vt 0.735522 0.257199
vt 0.396903 0.153123
vt 0.925000 0.850000
vt 0.295234 0.260231
vt 0.951484 0.235102
vt 0.782676 0.099044
vt 0.822682 0.730253
vt 0.735522 0.523062
vt 0.125000 0.850000
vt 0.951484 0.284948
vt 0.735522 0.468333
vt 0.166543 0.310767
vt 0.113887 0.310767
vt 0.938484 0.100000
vt 0.061292 0.260231
vt 0.674708 0.750700
vt 0.735522 0.577268
vt 0.674708 0.697125
vt 0.835394 0.100000
vt 0.349488 0.258831
vt 0.344190 0.100000
vt 0.125000 0.100000
vt 0.735522 0.631397
vt 0.913498 0.607336
vt 1.000000 0.132920
vt 0.073306 0.153123
vt 0.685522 0.681397
vt 0.299488 0.308831
vt 0.785394 0.150000
vt 0.825772 0.721245
vt 0.624708 0.747125
vt 0.624708 0.800700
vt 0.863498 0.657336
vt 0.772682 0.780253
vt 0.875000 0.900000
vt 0.951924 0.538009
vt 0.075000 0.900000
vt 0.903814 0.593727
vt 0.888484 0.150000
vt 0.951924 0.436165
vt 0.836009 0.150000
vt 0.184015 0.150000
vt 0.901484 0.285102
vt 0.240555 0.150000
vt 0.950000 0.182920
vt 0.023306 0.203123
vt 0.294190 0.150000
vt 0.346903 0.203123
vt 0.075000 0.150000
vt 0.685522 0.195699
vt 0.127524 0.150000
vt 0.346903 0.257884
vt 0.245234 0.310231
vt 0.685522 0.247717
vt 0.951925 0.484998
vt 0.901484 0.334948
vt 0.951924 0.384360
vt 0.685522 0.465526
vt 0.685522 0.518333
vt 0.685522 0.573062
vt 0.685522 0.307199
vt 0.685522 0.627268
vt 0.902556 0.233736
vt 0.011292 0.310231
vt 0.063887 0.360767
vt 0.116543 0.360767
vt 0.863498 0.607336
vt 0.240555 0.100000
vt 0.294190 0.100000
vt 0.346903 0.207884
vt 0.685522 0.197717
vt 0.116543 0.310767
vt 0.346903 0.153123
vt 0.063887 0.310767
vt 0.299488 0.258831
vt 0.785394 0.100000
vt 0.011292 0.260231
vt 0.685522 0.415526
vt 0.825772 0.671245
vt 0.685522 0.257199
vt 0.685522 0.523062
vt 0.875000 0.850000
vt 0.685522 0.577268
vt 0.772682 0.730253
vt 0.245234 0.260231
vt 0.685522 0.631397
vt 0.888484 0.100000
vt 0.836009 0.100000
vt 0.685522 0.468333
vt 0.950000 0.132920
vt 0.127524 0.100000
vt 0.951925 0.334360
vt 0.075000 0.100000
vt 0.624708 0.697125
vt 0.901484 0.235102
vt 0.624708 0.750700
vt 0.732676 0.099044
vt 0.685522 0.145699
vt 0.901484 0.284948
vt 0.184015 0.100000
vt 0.902556 0.183736
vt 0.951925 0.386165
vt 0.075000 0.850000
vt 0.023306 0.153123
vt 0.951924 0.434998
vt 0.951925 0.488010
vt 0.903814 0.543727
vt 1.000000 0.334359
vt 1.000000 0.384360
vt 1.000000 0.386165
vt 1.000000 0.484998
vt 1.000000 0.488009
vt 1.000000 0.538009
vt 0.772682 0.772682
vt 0.732676 0.145699
vt 0.735522 0.149044
s 0
f 93/101/1 41/49/1 151/159/1
f 42/50/1 95/103/1 6/7/1
f 50/58/1 98/106/1 10/12/1
f 99/107/1 48/56/1 121/129/1
f 101/109/1 51/59/1 122/130/1
f 105/113/1 52/60/1 131/139/1
f 26/31/1 124/132/1 98/106/1
f 55/63/1 79/87/1 32/38/1
f 33/40/1 127/135/1 80/88/1
f 7/9/1 9/11/1 54/62/1
f 45/53/1 90/98/1 5/5/1
f 92/100/1 70/78/1 139/147/1
f 12/15/1 141/149/1 96/104/1
f 18/23/1 143/151/1 39/47/1
f 95/103/1 103/111/1 126/134/1
f 109/117/1 62/70/1 140/148/1
f 110/118/1 59/67/1 132/140/1
f 111/119/1 68/76/1 134/142/1
f 113/121/1 74/82/1 137/145/1
f 103/111/1 71/79/1 126/134/1
f 40/48/1 115/123/1 116/124/1
f 30/36/1 142/150/1 102/110/1
f 67/75/1 82/90/1 17/21/1
f 165/173/1 19/24/1 67/75/1
f 93/101/1 4/4/1 41/49/1
f 42/50/1 119/127/1 95/103/1
f 50/58/1 120/128/1 98/106/1
f 99/107/1 2/2/1 48/56/1
f 101/109/1 11/14/1 51/59/1
f 105/113/1 24/29/1 52/60/1
f 26/31/1 53/61/1 124/132/1
f 55/63/1 126/134/1 79/87/1
f 33/40/1 57/65/1 127/135/1
f 135/143/1 37/45/1 74/82/1
f 74/82/1 130/138/1 81/89/1
f 135/143/1 74/82/1 81/89/1
f 133/141/1 31/37/1 58/66/1
f 58/66/1 135/143/1 81/89/1
f 58/66/1 81/89/1 3/3/1
f 54/62/1 133/141/1 58/66/1
f 49/57/1 23/28/1 54/62/1
f 44/52/1 87/95/1 164/172/1
f 75/83/1 89/97/1 9/11/1
f 9/11/1 44/52/1 164/172/1
f 164/172/1 49/57/1 54/62/1
f 54/62/1 58/66/1 3/3/1
f 47/55/1 84/92/1 7/9/1
f 54/62/1 3/3/1 47/55/1
f 9/11/1 164/172/1 54/62/1
f 7/9/1 75/83/1 9/11/1
f 54/62/1 47/55/1 7/9/1
f 45/53/1 138/146/1 90/98/1
f 92/100/1 8/10/1 70/78/1
f 12/15/1 65/73/1 141/149/1
f 46/54/1 96/104/1 18/23/1
f 18/23/1 159/167/1 143/151/1
f 143/151/1 35/43/1 38/46/1
f 61/69/1 56/64/1 39/47/1
f 143/151/1 38/46/1 61/69/1
f 39/47/1 46/54/1 18/23/1
f 143/151/1 61/69/1 39/47/1
f 114/122/1 39/47/1 56/64/1
f 146/154/1 150/158/1 94/102/1
f 114/122/1 56/64/1 146/154/1
f 96/104/1 46/54/1 152/160/1
f 152/160/1 114/122/1 146/154/1
f 146/154/1 94/102/1 107/115/1
f 12/16/1 96/104/1 152/160/1
f 90/98/1 12/16/1 152/160/1
f 8/10/1 92/100/1 5/6/1
f 5/6/1 90/98/1 152/160/1
f 5/6/1 152/160/1 146/154/1
f 80/88/2 8/10/2 5/6/2
f 5/6/1 146/154/1 107/115/1
f 35/43/1 143/151/1 108/116/1
f 80/88/1 5/6/1 107/115/1
f 107/115/1 35/43/1 108/116/1
f 108/116/1 160/168/1 161/169/1
f 153/161/1 156/164/1 91/99/1
f 108/116/1 161/169/1 153/161/1
f 33/41/1 80/88/1 107/115/1
f 107/115/1 108/116/1 153/161/1
f 153/161/1 91/99/1 106/114/1
f 167/175/1 33/41/1 107/115/1
f 107/115/1 153/161/1 106/114/1
f 106/114/1 162/170/1 163/171/1
f 106/114/1 163/171/1 157/165/1
f 167/175/1 107/115/1 106/114/1
f 24/29/1 51/59/1 11/14/1
f 11/14/1 167/175/1 106/114/1
f 106/114/1 157/165/1 87/95/1
f 24/29/1 11/14/1 106/114/1
f 29/35/1 52/60/1 24/29/1
f 24/29/1 106/114/1 87/95/1
f 87/95/1 44/52/1 158/166/1
f 89/97/1 75/83/1 118/126/1
f 24/29/1 87/95/1 158/166/1
f 158/166/1 89/97/1 118/126/1
f 84/92/1 47/55/1 130/138/1
f 24/29/1 158/166/1 118/126/1
f 118/126/1 84/92/1 130/138/1
f 130/138/1 74/82/1 15/19/1
f 68/76/1 13/17/1 59/67/1
f 130/138/1 15/19/1 68/76/1
f 24/29/1 118/126/1 130/138/1
f 29/35/1 24/29/1 130/138/1
f 130/138/1 68/76/1 59/67/1
f 14/18/1 62/70/1 16/20/1
f 130/138/1 59/67/1 14/18/1
f 105/113/1 131/139/1 112/120/1
f 149/157/1 101/109/1 122/130/1
f 122/130/1 105/113/1 112/120/1
f 148/156/1 166/174/1 149/157/1
f 149/157/1 122/130/1 112/120/1
f 130/138/1 14/18/1 16/20/1
f 130/138/1 16/20/1 43/51/1
f 70/78/1 127/135/1 57/65/1
f 138/146/1 45/53/1 139/147/1
f 139/147/1 70/78/1 57/65/1
f 138/146/1 139/147/1 57/65/1
f 76/84/1 141/149/1 65/73/1
f 65/73/1 138/146/1 57/65/1
f 36/44/1 76/84/1 65/73/1
f 144/152/1 1/1/1 36/44/1
f 41/49/2 142/150/2 73/81/2
f 73/81/1 144/152/1 36/44/1
f 36/44/1 65/73/1 57/65/1
f 36/44/1 57/65/1 148/156/1
f 41/49/1 73/81/1 36/44/1
f 119/127/1 42/50/1 151/159/1
f 151/159/1 41/49/1 36/44/1
f 151/159/1 36/44/1 148/156/1
f 120/128/1 50/58/1 119/127/1
f 119/127/1 151/159/1 148/156/1
f 120/128/1 119/127/1 148/156/1
f 53/61/1 26/32/1 72/80/1
f 72/80/1 120/128/1 148/156/1
f 72/80/1 148/156/1 149/157/1
f 48/56/1 2/2/1 53/61/1
f 53/61/1 72/80/1 149/157/1
f 53/61/1 149/157/1 112/120/1
f 21/26/1 48/56/1 53/61/1
f 21/26/1 53/61/1 112/120/1
f 34/42/1 71/79/1 21/26/1
f 32/39/1 79/87/1 34/42/1
f 34/42/1 21/26/1 112/120/1
f 29/35/1 130/138/1 43/51/1
f 129/137/1 109/117/1 140/148/1
f 29/35/1 43/51/1 129/137/1
f 34/42/1 112/120/1 29/35/1
f 32/39/1 34/42/1 29/35/1
f 129/137/1 140/148/1 110/118/1
f 32/39/1 29/35/1 129/137/1
f 104/112/1 32/39/1 129/137/1
f 110/118/1 132/140/1 111/119/1
f 104/112/1 129/137/1 110/118/1
f 126/134/1 55/63/1 136/144/1
f 104/112/1 110/118/1 111/119/1
f 104/112/1 111/119/1 134/142/1
f 113/121/1 137/145/1 78/86/1
f 104/112/1 134/142/1 113/121/1
f 104/112/1 113/121/1 78/86/1
f 78/86/1 37/45/1 135/143/1
f 135/143/1 165/173/1 67/75/1
f 67/75/1 17/22/1 69/77/1
f 78/86/1 135/143/1 67/75/1
f 78/86/1 67/75/1 69/77/1
f 145/153/1 82/90/1 147/155/1
f 78/86/1 69/77/1 145/153/1
f 104/112/1 78/86/1 145/153/1
f 145/153/1 147/155/1 83/91/1
f 104/112/1 145/153/1 83/91/1
f 19/24/1 85/93/1 31/37/1
f 19/24/1 31/37/1 133/141/1
f 86/94/1 23/28/1 49/57/1
f 19/24/1 133/141/1 86/94/1
f 83/91/1 19/24/1 86/94/1
f 86/94/1 49/57/1 40/48/1
f 40/48/1 88/96/1 20/25/1
f 60/68/1 117/125/1 25/30/1
f 86/94/1 40/48/1 20/25/1
f 20/25/1 60/68/1 25/30/1
f 63/71/1 123/131/1 64/72/1
f 63/71/1 64/72/1 125/133/1
f 125/133/1 27/33/1 66/74/1
f 66/74/1 128/136/1 97/105/1
f 28/34/1 77/85/1 100/108/1
f 66/74/1 97/105/1 28/34/1
f 63/71/1 125/133/1 66/74/1
f 63/71/1 66/74/1 28/34/1
f 28/34/1 100/108/1 30/36/1
f 102/110/1 4/4/1 93/101/1
f 28/34/1 30/36/1 102/110/1
f 63/71/1 28/34/1 102/110/1
f 93/101/2 6/8/2 95/103/2
f 63/71/1 102/110/1 93/101/1
f 25/30/1 63/71/1 93/101/1
f 95/103/1 10/13/1 98/106/1
f 25/30/1 93/101/1 95/103/1
f 83/91/1 86/94/1 20/25/1
f 104/112/1 83/91/1 20/25/1
f 20/25/1 25/30/1 95/103/1
f 95/103/1 98/106/1 124/132/1
f 99/107/1 121/129/1 103/111/1
f 95/103/1 124/132/1 99/107/1
f 104/112/1 20/25/1 95/103/1
f 136/144/1 104/112/1 95/103/1
f 95/103/1 99/107/1 103/111/1
f 126/134/1 136/144/1 95/103/1
f 109/117/1 16/20/1 62/70/1
f 110/118/1 14/18/1 59/67/1
f 111/119/1 13/17/1 68/76/1
f 113/121/1 15/19/1 74/82/1
f 103/111/1 21/26/1 71/79/1
f 154/162/1 88/96/1 40/48/1
f 1/1/1 144/152/1 100/108/1
f 100/108/1 77/85/1 155/163/1
f 155/163/1 97/105/1 128/136/1
f 115/123/1 27/33/1 125/133/1
f 115/123/1 125/133/1 116/124/1
f 22/27/1 64/72/1 123/131/1
f 22/27/1 123/131/1 117/125/1
f 117/125/1 60/68/1 154/162/1
f 1/1/1 100/108/1 155/163/1
f 1/1/1 155/163/1 128/136/1
f 117/125/1 154/162/1 40/48/1
f 116/124/2 22/27/2 117/125/2
f 40/48/1 1/1/1 128/136/1
f 40/48/1 128/136/1 115/123/1
f 116/124/1 117/125/1 40/48/1
f 30/36/1 73/81/1 142/150/1
f 67/75/1 147/155/1 82/90/1
f 165/173/1 85/93/1 19/24/1
