# Blender 3.4.1
# www.blender.org
o Cube
v -1.000000 -0.250000 -0.100000
v 0.250000 -1.000000 -0.100000
v -1.000000 -0.250000 0.100000
v 0.250000 -1.000000 0.100000
v 1.000000 -0.250000 -0.100000
v 0.250000 1.000000 -0.100000
v 1.000000 -0.250000 0.100000
v 0.250000 1.000000 0.100000
v -1.000000 0.250000 -0.100000
v -0.250000 -1.000000 -0.100000
v -1.000000 0.250000 0.100000
v -0.250000 -1.000000 0.100000
v 1.000000 0.250000 -0.100000
v -0.250000 1.000000 -0.100000
v 1.000000 0.250000 0.100000
v -0.250000 1.000000 0.100000
v -0.250000 0.250000 -0.100000
v 0.250000 0.250000 -0.100000
v 0.250000 0.250000 0.100000
v -0.250000 0.250000 0.100000
v 0.250000 -0.250000 -0.100000
v -0.250000 -0.250000 -0.100000
v 0.250000 -0.250000 0.100000
v -0.250000 -0.250000 0.100000
v -0.250000 -0.062500 -0.100000
v -0.250000 0.062500 0.100000
v 0.250000 0.062500 -0.100000
v 0.250000 -0.062500 0.100000
vn -0.0000 -0.0000 -1.0000
vn 1.0000 -0.0000 -0.0000
vn -0.0000 1.0000 -0.0000
vn -0.0000 -0.0000 1.0000
vn -0.0000 -1.0000 -0.0000
vn -1.0000 -0.0000 -0.0000
vt 0.625000 0.500000
vt 0.625000 0.500000
vt 0.625000 0.250000
vt 0.375000 0.500000
vt 0.375000 0.750000
vt 0.375000 0.500000
vt 0.625000 0.750000
vt 0.625000 0.500000
vt 0.625000 0.750000
vt 0.375000 0.750000
vt 0.375000 1.000000
vt 0.375000 0.750000
vt 0.875000 0.500000
vt 0.625000 0.250000
vt 0.875000 0.500000
vt 0.625000 0.000000
vt 0.625000 0.250000
vt 0.375000 0.250000
vt 0.125000 0.500000
vt 0.125000 0.500000
vt 0.375000 0.500000
vt 0.375000 0.250000
vt 0.875000 0.750000
vt 0.625000 1.000000
vt 0.625000 0.000000
vt 0.875000 0.750000
vt 0.625000 0.750000
vt 0.625000 0.000000
vt 0.375000 0.000000
vt 0.375000 1.000000
vt 0.125000 0.750000
vt 0.375000 0.250000
vt 0.375000 1.000000
vt 0.125000 0.750000
vt 0.625000 0.156250
vt 0.875000 0.656250
vt 0.875000 0.593750
vt 0.625000 0.000000
vt 0.875000 0.656250
vt 0.625000 0.093750
vt 0.625000 0.656250
vt 0.625000 0.500000
vt 0.375000 0.093750
vt 0.125000 0.656250
vt 0.375000 0.656250
vt 0.375000 0.750000
vt 0.375000 0.156250
vt 0.125000 0.593750
vt 0.375000 0.250000
vt 0.125000 0.656250
vt 0.625000 0.593750
vt 0.625000 0.656250
vt 0.625000 0.500000
vt 0.625000 0.000000
vt 0.625000 0.593750
vt 0.875000 0.593750
vt 0.375000 0.750000
vt 0.375000 0.656250
vt 0.375000 0.593750
vt 0.375000 0.593750
vt 0.375000 0.250000
vt 0.125000 0.593750
vt 0.718750 0.593750
vt 0.218750 0.593750
vt 0.781250 0.656250
vt 0.281250 0.656250
s 0
f 13/23/1 21/52/1 27/65/1
f 1/1/1 17/37/1 25/63/1
f 17/37/1 27/65/1 25/63/1
f 21/52/1 25/63/1 27/65/1
f 5/7/2 15/30/2 7/10/2
f 9/14/3 20/47/3 17/35/3
f 13/25/3 19/43/3 15/29/3
f 23/58/4 15/31/4 19/44/4
f 20/48/4 3/4/4 24/60/4
f 24/60/4 28/66/4 26/64/4
f 19/44/4 26/64/4 28/66/4
f 7/10/5 21/52/5 5/7/5
f 3/4/5 22/55/5 24/60/5
f 9/14/6 3/4/6 11/18/6
f 14/26/1 18/41/1 17/36/1
f 2/2/1 22/56/1 21/51/1
f 6/9/3 16/33/3 8/11/3
f 10/16/6 24/61/6 22/54/6
f 14/28/6 20/49/6 16/32/6
f 16/34/4 19/45/4 8/12/4
f 4/6/4 24/62/4 12/20/4
f 8/12/2 18/42/2 6/8/2
f 4/5/2 21/53/2 23/57/2
f 10/17/5 4/6/5 12/21/5
f 27/65/1 18/39/1 13/23/1
f 13/23/1 5/7/1 21/52/1
f 25/63/1 22/55/1 1/1/1
f 1/1/1 9/13/1 17/37/1
f 17/37/1 18/39/1 27/65/1
f 21/52/1 22/55/1 25/63/1
f 5/7/2 13/24/2 15/30/2
f 9/14/3 11/18/3 20/47/3
f 13/25/3 18/40/3 19/43/3
f 19/44/1 28/66/1 23/58/1
f 23/58/4 7/10/4 15/31/4
f 24/60/1 26/64/1 20/48/1
f 20/48/4 11/19/4 3/4/4
f 24/60/4 23/58/4 28/66/4
f 19/44/4 20/48/4 26/64/4
f 7/10/5 23/58/5 21/52/5
f 3/4/5 1/1/5 22/55/5
f 9/14/6 1/1/6 3/4/6
f 14/26/1 6/9/1 18/41/1
f 2/2/1 10/15/1 22/56/1
f 6/9/3 14/27/3 16/33/3
f 10/16/6 12/22/6 24/61/6
f 14/28/6 17/38/6 20/49/6
f 16/34/4 20/50/4 19/45/4
f 4/6/4 23/59/4 24/62/4
f 8/12/2 19/46/2 18/42/2
f 4/5/2 2/2/2 21/53/2
f 10/17/5 2/3/5 4/6/5
