# Blender v3.0.0 OBJ File: ''
# www.blender.org
o Cube
v 7.216689 -0.869673 -6.815111
v 7.216689 -2.869673 -6.815111
v 7.216689 -0.869673 6.815111
v 7.216689 -2.869673 6.815111
v -7.216689 -0.869673 -6.815111
v -7.216689 -2.869673 -6.815111
v -7.216689 -0.869673 6.815111
v -7.216689 -2.869673 6.815111
vt 0.875000 0.500000
vt 0.625000 0.750000
vt 0.625000 0.500000
vt 0.375000 1.000000
vt 0.375000 0.750000
vt 0.625000 0.000000
vt 0.375000 0.250000
vt 0.375000 0.000000
vt 0.375000 0.500000
vt 0.125000 0.750000
vt 0.125000 0.500000
vt 0.625000 0.250000
vt 0.875000 0.750000
vt 0.625000 1.000000
vn 0.0000 1.0000 0.0000
vn 0.0000 0.0000 1.0000
vn -1.0000 0.0000 0.0000
vn 0.0000 -1.0000 0.0000
vn 1.0000 0.0000 0.0000
vn 0.0000 0.0000 -1.0000
s off
f 5/1/1 3/2/1 1/3/1
f 5/1/1 7/13/1 3/2/1